<svg width="14" height="14" viewBox="0 0 14 14" fill="none" xmlns="http://www.w3.org/2000/svg">
<path d="M6.08321 5.78713L6.08358 5.7875H6.125C6.84771 5.7875 7.54087 5.50023 8.05183 4.9893L7.98112 4.91859L8.05183 4.9893C8.56276 4.47837 8.85003 3.78519 8.85003 3.06247C8.85003 2.33974 8.56276 1.64659 8.05183 1.13564L7.98516 1.20231L8.05183 1.13564C7.5409 0.624706 6.84772 0.337439 6.125 0.337439C5.40227 0.337439 4.70913 0.624707 4.19817 1.13563L4.19817 1.13564C3.68724 1.64657 3.39997 2.33974 3.39997 3.06247V3.06255C3.40054 3.78527 3.68838 4.47782 4.19867 4.9887L4.19875 4.98878C4.69979 5.48925 5.37558 5.77575 6.08321 5.78713ZM4.47503 3.06258C4.47606 2.15406 5.20966 1.41783 6.11717 1.41249H6.125C6.79221 1.41249 7.39395 1.81469 7.64919 2.43084L7.64921 2.43087C7.90495 3.04756 7.76367 3.7576 7.29189 4.22935L7.3626 4.30007L7.29189 4.22936C6.8201 4.70114 6.11009 4.84242 5.49341 4.58668L5.49337 4.58666C4.87725 4.33145 4.47507 3.72976 4.47503 3.06258ZM1.36976 13.5052C1.47065 13.6061 1.60769 13.6625 1.74999 13.6625H10.5C10.6423 13.6625 10.7793 13.6061 10.8802 13.5052C10.9811 13.4043 11.0375 13.2673 11.0375 13.125L11.0375 11.375L11.0375 11.3749C11.0358 10.0725 10.5178 8.82375 9.5973 7.90272L9.59726 7.90268C8.67619 6.98218 7.4274 6.46421 6.12512 6.4625L6.12504 6.52398L6.125 6.46249H6.12499L6.12495 6.52296L6.12487 6.4625C4.82254 6.46417 3.57375 6.98219 2.65273 7.90268L2.65269 7.90273C1.73218 8.82379 1.21421 10.0726 1.2125 11.3749V11.375V13.125C1.2125 13.2673 1.26887 13.4043 1.36976 13.5052ZM9.96249 12.5875H2.2875V11.375C2.2875 10.0041 3.01876 8.73726 4.20617 8.0519L4.2062 8.05189C5.39368 7.36594 6.85619 7.36594 8.04366 8.05189L8.04369 8.0519C9.23117 8.73731 9.96236 10.0043 9.96236 11.375L9.96249 12.5875ZM12.2446 6.23463L11.6974 5.68751L12.2452 5.1397L12.2452 5.13971L12.2464 5.13854C12.4507 4.92746 12.4472 4.59222 12.2404 4.3848L12.2402 4.38457C12.0328 4.1778 11.6975 4.17427 11.4865 4.37863L11.4853 4.37976L10.9375 4.92757L10.3897 4.37976L10.3897 4.37975L10.3885 4.37863C10.1774 4.17426 9.84221 4.17782 9.63479 4.38457L9.63456 4.3848C9.42779 4.59222 9.42426 4.92746 9.62861 5.13854L9.6286 5.13855L9.62975 5.1397L10.1776 5.68751L9.62975 6.23532L9.62974 6.23531L9.62862 6.23647C9.42425 6.44756 9.4278 6.78279 9.63456 6.99022L9.63478 6.99044C9.84221 7.19721 10.1774 7.20074 10.3885 6.99639L10.3885 6.9964L10.3897 6.99525L10.9375 6.44744L11.4847 6.99461C11.5848 7.09837 11.7223 7.15718 11.8663 7.15852C12.0101 7.15986 12.1491 7.10283 12.2507 7.00076C12.3528 6.8992 12.4099 6.76017 12.4085 6.61626C12.4072 6.47227 12.3484 6.33478 12.2446 6.23463Z" fill="#545F7D" stroke="#545F7D" stroke-width="0.2"/>
</svg>
