<svg width="26" height="26" viewBox="0 0 26 26" fill="none" xmlns="http://www.w3.org/2000/svg">
<path d="M19.7001 13.691C19.718 16.5176 20.8517 19.2235 22.8584 21.2183C23.0327 21.3912 23.0856 21.6531 22.9916 21.8804L22.9912 21.8815C22.8964 22.107 22.676 22.2561 22.4284 22.2549M19.7001 13.691L22.429 22.0549M19.7001 13.691V13.5968V11.6642C19.7176 10.1275 19.2154 8.63071 18.275 7.41524C17.3984 6.28217 16.1892 5.45625 14.821 5.05095C15.2642 4.42355 15.3572 3.60324 15.0487 2.88438L15.0486 2.88426C14.6962 2.06444 13.8907 1.53333 12.9982 1.53333C12.1057 1.53333 11.3002 2.06444 10.9477 2.88426L10.9477 2.88438C10.6397 3.60199 10.7318 4.42065 11.173 5.04761C9.82501 5.42985 8.62769 6.22584 7.75338 7.32787C6.81219 8.51196 6.30025 9.97972 6.30025 11.4925L6.30025 13.5968L6.30025 13.5973C6.30723 16.4577 5.17067 19.2014 3.14185 21.2182C2.96751 21.3911 2.91458 21.6531 3.00854 21.8804L3.00898 21.8814C3.10373 22.107 3.32419 22.2561 3.57172 22.2549M19.7001 13.691L10.0221 22.2549M22.4284 22.2549C22.4282 22.2549 22.428 22.2549 22.4278 22.2549L22.429 22.0549M22.4284 22.2549H22.429V22.0549M22.4284 22.2549H15.9781M22.429 22.0549H15.8112M15.9781 22.2549C15.9899 22.1989 16.0002 22.1422 16.0089 22.085L15.8112 22.0549M15.9781 22.2549C15.6832 23.6549 14.4456 24.67 13.0001 24.67C11.5546 24.67 10.3171 23.6549 10.0221 22.2549M15.9781 22.2549H15.8112V22.0549M15.8112 22.0549L10.0221 22.2549M10.0221 22.2549H10.189V22.0549L9.99125 22.0851C9.99999 22.1423 10.0103 22.1989 10.0221 22.2549ZM10.0221 22.2549H3.57172M3.57172 22.2549C3.57195 22.2549 3.57218 22.2549 3.57241 22.2549L3.57118 22.0549V22.2549H3.57172ZM14.7285 22.2549C14.4747 22.9799 13.7867 23.4798 13.0001 23.4799H13C12.2133 23.4798 11.5254 22.9799 11.2716 22.2549H14.7285ZM7.51233 11.4924L7.51233 11.4921C7.51037 9.98893 8.12478 8.55137 9.21241 7.51489L9.21249 7.51481C10.2998 6.47745 11.7643 5.93259 13.2651 6.00474C14.6959 6.09328 16.0376 6.73143 17.0099 7.78408L17.0099 7.78409C17.9834 8.83803 18.5119 10.2253 18.4874 11.6596H18.4873V11.663L18.4873 13.5961C18.4873 13.5962 18.4873 13.5963 18.4873 13.5964C18.4786 16.3045 19.3943 18.9297 21.0743 21.0424H4.92542C6.60545 18.9296 7.52131 16.3045 7.51233 13.5964L7.51233 11.4924ZM13.0001 2.75485C13.4118 2.75485 13.7837 3.00273 13.9416 3.38386C14.0986 3.76422 14.0121 4.20229 13.7209 4.49444C13.4288 4.78554 12.9908 4.87212 12.6105 4.71515C12.2293 4.55724 11.9813 4.18537 11.9813 3.7736C11.9813 3.21071 12.4372 2.75485 13.0001 2.75485Z" fill="#213F7D" stroke="#213F7D" stroke-width="0.4"/>
</svg>
